HIERARCHY
ROOT Hips
{
    OFFSET   0.000000   0.000000   0.000000
    CHANNELS 6 Xposition Yposition Zposition Zrotation Xrotation Yrotation
    JOINT Chest
    {
        OFFSET   0.000000   8.007240   0.000000
        CHANNELS 3 Zrotation Xrotation Yrotation
        JOINT Chest2
        {
            OFFSET   0.000000  22.077100   0.000000
            CHANNELS 3 Zrotation Xrotation Yrotation
            JOINT Neck
            {
                OFFSET   0.000000  23.254800   0.000000
                CHANNELS 3 Zrotation Xrotation Yrotation
                JOINT Head
                {
                    OFFSET   0.000000  14.370000   1.956600
                    CHANNELS 3 Zrotation Xrotation Yrotation
                    End Site
                    {
                        OFFSET   0.000000  19.566000   0.000000
                    }
                }
            }
            JOINT LeftCollar
            {
                OFFSET   3.911900  19.017000  -0.467064
                CHANNELS 3 Zrotation Xrotation Yrotation
                JOINT LeftShoulder
                {
                    OFFSET  10.383700   0.000000   0.000000
                    CHANNELS 3 Zrotation Xrotation Yrotation
                    JOINT LeftElbow
                    {
                        OFFSET  26.662100   0.001476   0.000517
                        CHANNELS 3 Zrotation Xrotation Yrotation
                        JOINT LeftWrist
                        {
                            OFFSET  28.869000  -0.000025  -0.000106
                            CHANNELS 3 Zrotation Xrotation Yrotation
                            JOINT LeftFinger0
                            {
                                OFFSET   2.044660  -2.323460   3.252850
                                CHANNELS 3 Zrotation Xrotation Yrotation
                                JOINT LeftFinger01
                                {
                                    OFFSET   3.088130   0.000000   0.000000
                                    CHANNELS 3 Zrotation Xrotation Yrotation
                                    JOINT LeftFinger02
                                    {
                                        OFFSET   2.639460   0.000000   0.000000
                                        CHANNELS 3 Zrotation Xrotation Yrotation
                                        End Site
                                        {
                                            OFFSET   2.582190   0.000000   0.000000
                                        }
                                    }
                                }
                            }
                            JOINT LeftFinger1
                            {
                                OFFSET   8.364480   0.000000   3.252850
                                CHANNELS 3 Zrotation Xrotation Yrotation
                                JOINT LeftFinger11
                                {
                                    OFFSET   4.646930   0.000000   0.000000
                                    CHANNELS 3 Zrotation Xrotation Yrotation
                                    JOINT LeftFinger12
                                    {
                                        OFFSET   2.323460   0.000000   0.000000
                                        CHANNELS 3 Zrotation Xrotation Yrotation
                                        End Site
                                        {
                                            OFFSET   2.273050   0.000000   0.000000
                                        }
                                    }
                                }
                            }
                            JOINT LeftFinger2
                            {
                                OFFSET   8.364490   0.000015   1.078090
                                CHANNELS 3 Zrotation Xrotation Yrotation
                                JOINT LeftFinger21
                                {
                                    OFFSET   5.111620   0.000000   0.000000
                                    CHANNELS 3 Zrotation Xrotation Yrotation
                                    JOINT LeftFinger22
                                    {
                                        OFFSET   2.788160   0.000016   0.000000
                                        CHANNELS 3 Zrotation Xrotation Yrotation
                                        End Site
                                        {
                                            OFFSET   2.727660   0.000000   0.000000
                                        }
                                    }
                                }
                            }
                            JOINT LeftFinger3
                            {
                                OFFSET   7.899780   0.000017  -1.078090
                                CHANNELS 3 Zrotation Xrotation Yrotation
                                JOINT LeftFinger31
                                {
                                    OFFSET   4.646930   0.000000   0.000000
                                    CHANNELS 3 Zrotation Xrotation Yrotation
                                    JOINT LeftFinger32
                                    {
                                        OFFSET   2.323470   0.000000   0.000000
                                        CHANNELS 3 Zrotation Xrotation Yrotation
                                        End Site
                                        {
                                            OFFSET   2.273050   0.000000   0.000000
                                        }
                                    }
                                }
                            }
                            JOINT LeftFinger4
                            {
                                OFFSET   7.435090   0.000000  -3.252850
                                CHANNELS 3 Zrotation Xrotation Yrotation
                                JOINT LeftFinger41
                                {
                                    OFFSET   3.717550   0.000000   0.000000
                                    CHANNELS 3 Zrotation Xrotation Yrotation
                                    JOINT LeftFinger42
                                    {
                                        OFFSET   1.858770   0.000000   0.000000
                                        CHANNELS 3 Zrotation Xrotation Yrotation
                                        End Site
                                        {
                                            OFFSET   1.818440   0.000000   0.000000
                                        }
                                    }
                                }
                            }
                        }
                    }
                }
            }
            JOINT RightCollar
            {
                OFFSET  -3.911900  19.017000  -0.467063
                CHANNELS 3 Zrotation Xrotation Yrotation
                JOINT RightShoulder
                {
                    OFFSET -10.383700   0.000019   0.000000
                    CHANNELS 3 Zrotation Xrotation Yrotation
                    JOINT RightElbow
                    {
                        OFFSET -26.662100   0.001175   0.000102
                        CHANNELS 3 Zrotation Xrotation Yrotation
                        JOINT RightWrist
                        {
                            OFFSET -28.869000   0.000016  -0.000079
                            CHANNELS 3 Zrotation Xrotation Yrotation
                            JOINT RightFinger0
                            {
                                OFFSET  -2.044660  -2.323490   3.252850
                                CHANNELS 3 Zrotation Xrotation Yrotation
                                JOINT RightFinger01
                                {
                                    OFFSET  -3.088140   0.000000   0.000000
                                    CHANNELS 3 Zrotation Xrotation Yrotation
                                    JOINT RightFinger02
                                    {
                                        OFFSET  -2.639460   0.000000   0.000000
                                        CHANNELS 3 Zrotation Xrotation Yrotation
                                        End Site
                                        {
                                            OFFSET  -2.582190   0.000000   0.000000
                                        }
                                    }
                                }
                            }
                            JOINT RightFinger1
                            {
                                OFFSET  -8.364480   0.000000   3.252850
                                CHANNELS 3 Zrotation Xrotation Yrotation
                                JOINT RightFinger11
                                {
                                    OFFSET  -4.646930   0.000000   0.000000
                                    CHANNELS 3 Zrotation Xrotation Yrotation
                                    JOINT RightFinger12
                                    {
                                        OFFSET  -2.323470   0.000000   0.000000
                                        CHANNELS 3 Zrotation Xrotation Yrotation
                                        End Site
                                        {
                                            OFFSET  -2.273050   0.000000   0.000000
                                        }
                                    }
                                }
                            }
                            JOINT RightFinger2
                            {
                                OFFSET  -8.364480   0.000000   1.078090
                                CHANNELS 3 Zrotation Xrotation Yrotation
                                JOINT RightFinger21
                                {
                                    OFFSET  -5.111620   0.000000   0.000000
                                    CHANNELS 3 Zrotation Xrotation Yrotation
                                    JOINT RightFinger22
                                    {
                                        OFFSET  -2.788160   0.000000   0.000000
                                        CHANNELS 3 Zrotation Xrotation Yrotation
                                        End Site
                                        {
                                            OFFSET  -2.727660   0.000000   0.000000
                                        }
                                    }
                                }
                            }
                            JOINT RightFinger3
                            {
                                OFFSET  -7.899780   0.000000  -1.078090
                                CHANNELS 3 Zrotation Xrotation Yrotation
                                JOINT RightFinger31
                                {
                                    OFFSET  -4.646930   0.000000   0.000000
                                    CHANNELS 3 Zrotation Xrotation Yrotation
                                    JOINT RightFinger32
                                    {
                                        OFFSET  -2.323470   0.000000   0.000000
                                        CHANNELS 3 Zrotation Xrotation Yrotation
                                        End Site
                                        {
                                            OFFSET  -2.273050   0.000000   0.000000
                                        }
                                    }
                                }
                            }
                            JOINT RightFinger4
                            {
                                OFFSET  -7.435090   0.000000  -3.252850
                                CHANNELS 3 Zrotation Xrotation Yrotation
                                JOINT RightFinger41
                                {
                                    OFFSET  -3.717550   0.000000   0.000000
                                    CHANNELS 3 Zrotation Xrotation Yrotation
                                    JOINT RightFinger42
                                    {
                                        OFFSET  -1.858770   0.000000   0.000000
                                        CHANNELS 3 Zrotation Xrotation Yrotation
                                        End Site
                                        {
                                            OFFSET  -1.818440   0.000000   0.000000
                                        }
                                    }
                                }
                            }
                        }
                    }
                }
            }
        }
    }
    JOINT LeftHip
    {
        OFFSET   9.783040   0.000000   0.000000
        CHANNELS 3 Zrotation Xrotation Yrotation
        JOINT LeftKnee
        {
            OFFSET   0.000032 -41.789100  -0.002222
            CHANNELS 3 Zrotation Xrotation Yrotation
            JOINT LeftAnkle
            {
                OFFSET   0.000087 -41.133200  -0.000135
                CHANNELS 3 Zrotation Xrotation Yrotation
                JOINT LeftToe
                {
                    OFFSET   0.000000  -6.358960  14.674500
                    CHANNELS 3 Zrotation Xrotation Yrotation
                    End Site
                    {
                        OFFSET   0.000000   0.000000   3.913200
                    }
                }
            }
        }
    }
    JOINT RightHip
    {
        OFFSET  -9.783040   0.000000   0.000000
        CHANNELS 3 Zrotation Xrotation Yrotation
        JOINT RightKnee
        {
            OFFSET   0.000047 -41.789100  -0.000896
            CHANNELS 3 Zrotation Xrotation Yrotation
            JOINT RightAnkle
            {
                OFFSET  -0.000117 -41.133300  -0.000248
                CHANNELS 3 Zrotation Xrotation Yrotation
                JOINT RightToe
                {
                    OFFSET   0.000000  -6.358970  14.674500
                    CHANNELS 3 Zrotation Xrotation Yrotation
                    End Site
                    {
                        OFFSET   0.000000   0.000000   3.913200
                    }
                }
            }
        }
    }
}
MOTION
Frames: 4
Frame Time:   0.016667
 -0.559981  89.446800   0.205942  -2.697180  -6.495570   2.487620   0.893826   4.435600  -0.424117   1.828930   8.863880  -0.921993   1.186280  -0.544519   0.007641   1.949220  -1.104930   3.385920  -5.402080   1.544630   0.689594 -70.762300  19.399600  -8.730890  -2.519530  -5.175780  -9.782730   6.524220  -4.462400  11.647800  42.237800  28.431300 -66.248200 -17.621100   0.006397   0.002052  -3.810570  -0.001713   0.001660 -32.396700   6.544140 -10.182200 -26.984000   0.000368   0.008940 -18.882700  -0.002436   0.005042 -28.500600   3.138310  -5.755160 -38.466500   0.003799  -0.004355 -25.618700   0.006527  -0.006413 -28.663200   0.936414  -1.715650 -38.736500  -0.000335   0.001216 -25.798500   0.002661  -0.006057 -37.731200  -0.433747   0.563696 -56.600000  -0.001640  -0.016791 -37.695600   0.000102  -0.004083   8.098440  -0.892125   9.277540  71.605800  11.533400  -2.732840   0.229695  -4.928680  14.820900  -9.707620 -24.711800  13.399000 -30.374900  23.597700  62.207600  37.931600  -0.004172   0.003331  13.958200   0.000378   0.010473  35.174800   6.910050   9.733200  29.259200  -0.028571   0.019332  20.481500  -0.010130   0.017087  32.357000   4.875520   7.679610  49.032100  -0.027574   0.032284  32.655400   0.000486   0.028077  61.660000  -0.653180  -0.254243  61.679700  -0.005544   0.090568  46.259800   0.048348   0.047325  53.936900  -6.215020  -4.442930  81.300800   0.013060   0.098024  54.146400   0.059289   0.028216   3.097260   9.810730   1.263390   1.080810   0.448778   6.362260  -2.150970  -3.476560  -1.421380   0.000000   0.000000  -0.000000   3.749150   3.345010  -2.435260  -0.241532   7.243840  -4.771070  -4.840800  -3.952960  -5.443450  -0.000000   0.000000   0.000000
 -0.556764  89.446900   0.207075  -2.708930  -6.551610   2.466430   0.902648   4.466600  -0.425272   1.847060   8.925830  -0.924832   1.175620  -0.544516   0.007659   1.931480  -1.104650   3.439660  -5.399060   1.573980   0.684710 -70.762500  19.377600  -8.773080  -2.519020  -5.140700  -9.808070   6.534980  -4.487370  11.648200  42.229700  28.377000 -66.175100 -17.594900   0.006405   0.002073  -3.797470  -0.001706   0.001647 -32.388400   6.540150 -10.178900 -26.977000   0.000366   0.008943 -18.883000  -0.002423   0.005047 -28.499100   3.145510  -5.768610 -38.453100   0.003799  -0.004354 -25.609800   0.006532  -0.006418 -28.663500   0.935481  -1.712380 -38.723300  -0.000336   0.001228 -25.789700   0.002669  -0.006051 -37.721500  -0.433860   0.563695 -56.585400  -0.001639  -0.016802 -37.685900   0.000072  -0.004073   8.079090  -0.834058   9.231370  71.638300  10.975800  -2.857040  -0.221895  -4.912110  16.170800  -9.523710 -25.906800  14.548800 -30.555900  24.994200  63.289800  38.106900  -0.004161   0.003334  14.067700   0.000378   0.010487  35.765100   7.017680   9.680910  29.747100  -0.027585   0.019573  20.822100  -0.010128   0.017243  32.833000   4.842650   7.503210  49.791500  -0.030127   0.041402  33.148900   0.000486   0.033730  63.855400  -1.000280  -0.409357  63.886500  -0.000695   0.090532  47.914800   0.052417   0.045380  55.422400  -6.912070  -4.651580  83.586700   0.031945   0.104382  55.668800   0.069827   0.020861   3.109190   9.869550   1.263640   1.077090   0.462061   6.377090  -2.152360  -3.491460  -1.416350   0.000000   0.000000  -0.000000   3.757590   3.396410  -2.434680  -0.244224   7.256040  -4.740370  -4.841920  -3.955310  -5.455750   0.000000   0.000000   0.000000
 -0.549820  89.447100   0.209656  -2.729110  -6.649790   2.427410   0.919244   4.518640  -0.433261   1.881680   9.029620  -0.943882   1.159010  -0.544497   0.007695   1.904350  -1.102980   3.549840  -5.392250   1.629730   0.672362 -70.764100  19.351000  -8.832040  -2.523000  -5.084840  -9.848690   6.545730  -4.512340  11.648600  42.220500  28.324900 -66.099600 -17.568800   0.006413   0.002105  -3.784380  -0.001690   0.001616 -32.381300   6.532640 -10.170700 -26.970000   0.000362   0.008951 -18.883400  -0.002389   0.005059 -28.497600   3.152710  -5.782060 -38.439700   0.003801  -0.004353 -25.600800   0.006542  -0.006431 -28.663900   0.932033  -1.704080 -38.701800  -0.000336   0.001262 -25.775400   0.002692  -0.006035 -37.707900  -0.433972   0.563694 -56.565000  -0.001639  -0.016828 -37.672300   0.000000  -0.004047   8.049910  -0.743732   9.156190  71.663100  10.029700  -3.064550  -1.017310  -4.861790  18.635400  -9.162830 -27.779800  16.427700 -31.033400  27.306800  65.113400  38.376800  -0.004130   0.003339  14.234100   0.000375   0.010517  36.757500   7.201440   9.588280  30.567200  -0.024531   0.019814  21.395500  -0.010120   0.017398  33.713700   4.788520   7.190570  51.101200  -0.032680   0.050519  34.018500   0.000487   0.039383  67.381700  -1.701900  -0.662512  67.428400   0.007236   0.090281  50.571300   0.056487   0.037998  57.853700  -7.948060  -4.865480  87.314700   0.050829   0.110740  58.151600   0.080366   0.008149   3.130520   9.975310   1.264230   1.069990   0.475334   6.401780  -2.153730  -3.514140  -1.408050  -0.000000   0.000000   0.000000   3.774880   3.484730  -2.429990  -0.247924   7.279690  -4.694540  -4.843700  -3.961010  -5.472780   0.000000   0.000000   0.000000
 -0.540712  89.447300   0.214316  -2.745820  -6.739700   2.392090   0.937108   4.561180  -0.458549   1.920140   9.114090  -0.997644   1.145940  -0.536911   0.007742   1.883050  -1.086880   3.685430  -5.381880   1.691810   0.656375 -70.771700  19.345400  -8.853380  -2.534790  -5.036740  -9.884480   6.543510  -4.507060  11.653300  42.247900  28.392100 -66.168600 -17.603800   0.006413   0.002124  -3.801900  -0.001670   0.001563 -32.384400   6.525690 -10.159000 -26.971600   0.000357   0.008965 -18.883600  -0.002337   0.005077 -28.500600   3.137510  -5.753960 -38.440700   0.003806  -0.004356 -25.601600   0.006558  -0.006452 -28.664400   0.925583  -1.692110 -38.690800  -0.000335   0.001313 -25.768200   0.002729  -0.006009 -37.705000  -0.433944   0.563379 -56.560600  -0.001639  -0.016871 -37.669400  -0.000136  -0.004007   8.031210  -0.682554   9.095050  71.595100   9.210440  -3.241050  -1.813380  -4.521440  21.047800  -8.956630 -29.086900  17.736100 -31.569600  29.249400  66.396100  38.579500  -0.004078   0.003341  14.352400   0.000357   0.010559  37.596100   7.366980   9.503170  31.259800  -0.018522   0.018053  21.877000  -0.007669   0.016504  34.601800   4.735940   6.890240  52.343500  -0.022358   0.038015  34.860800   0.000494   0.031123  69.988900  -2.564740  -0.862564  70.036600   0.013653   0.067893  52.527500   0.045826   0.020837  59.779800  -8.578520  -4.855220  90.232200   0.050529   0.084298  60.094700   0.065256  -0.005186   3.150700  10.079200   1.267500   1.060770   0.472478   6.420090  -2.151590  -3.526310  -1.402430  -0.000000   0.000000   0.000000   3.795530   3.563260  -2.418130  -0.254453   7.304450  -4.674260  -4.844250  -3.969680  -5.478250  -0.000000   0.000000  -0.000000
